<mxfile host="app.diagrams.net" modified="2020-09-03T04:34:36.893Z" agent="5.0 (Macintosh; Intel Mac OS X 10_15_6) AppleWebKit/537.36 (KHTML, like Gecko) Chrome/84.0.4147.125 Safari/537.36" etag="Y1m8jqqyGKYga67UH8bG" version="13.6.6" type="github">
  <diagram name="Page-1" id="9f46799a-70d6-7492-0946-bef42562c5a5">
    <mxGraphModel dx="1071" dy="884" grid="1" gridSize="10" guides="1" tooltips="1" connect="1" arrows="1" fold="1" page="1" pageScale="1" pageWidth="1100" pageHeight="850" background="#ffffff" math="0" shadow="0">
      <root>
        <mxCell id="0" />
        <mxCell id="1" parent="0" />
        <mxCell id="a2fp3hkH8mO6RsdTGguM-27" value="" style="edgeStyle=orthogonalEdgeStyle;rounded=0;orthogonalLoop=1;jettySize=auto;html=1;startArrow=ERone;startFill=0;endArrow=ERzeroToMany;endFill=1;entryX=0;entryY=0.5;entryDx=0;entryDy=0;exitX=1;exitY=0.5;exitDx=0;exitDy=0;" edge="1" parent="1" source="a2fp3hkH8mO6RsdTGguM-11" target="a2fp3hkH8mO6RsdTGguM-24">
          <mxGeometry relative="1" as="geometry">
            <mxPoint x="360" y="303" as="sourcePoint" />
            <mxPoint x="430" y="303" as="targetPoint" />
          </mxGeometry>
        </mxCell>
        <mxCell id="a2fp3hkH8mO6RsdTGguM-56" value="" style="edgeStyle=orthogonalEdgeStyle;rounded=0;orthogonalLoop=1;jettySize=auto;html=1;startArrow=ERone;startFill=0;endArrow=ERone;endFill=0;exitX=1;exitY=0.5;exitDx=0;exitDy=0;entryX=0;entryY=0.5;entryDx=0;entryDy=0;" edge="1" parent="1" source="a2fp3hkH8mO6RsdTGguM-24" target="a2fp3hkH8mO6RsdTGguM-47">
          <mxGeometry relative="1" as="geometry" />
        </mxCell>
        <mxCell id="a2fp3hkH8mO6RsdTGguM-74" value="" style="edgeStyle=orthogonalEdgeStyle;rounded=0;orthogonalLoop=1;jettySize=auto;html=1;startArrow=ERone;startFill=0;endArrow=ERone;endFill=0;" edge="1" parent="1" source="a2fp3hkH8mO6RsdTGguM-14" target="a2fp3hkH8mO6RsdTGguM-58">
          <mxGeometry relative="1" as="geometry" />
        </mxCell>
        <mxCell id="a2fp3hkH8mO6RsdTGguM-78" value="" style="edgeStyle=orthogonalEdgeStyle;rounded=0;orthogonalLoop=1;jettySize=auto;html=1;startArrow=ERone;startFill=0;endArrow=ERzeroToMany;endFill=1;entryX=0;entryY=0.5;entryDx=0;entryDy=0;exitX=1;exitY=0.75;exitDx=0;exitDy=0;" edge="1" parent="1" source="a2fp3hkH8mO6RsdTGguM-1" target="a2fp3hkH8mO6RsdTGguM-62">
          <mxGeometry relative="1" as="geometry">
            <mxPoint x="370" y="335" as="sourcePoint" />
            <mxPoint x="440" y="335" as="targetPoint" />
          </mxGeometry>
        </mxCell>
        <mxCell id="a2fp3hkH8mO6RsdTGguM-1" value="User" style="shape=table;startSize=30;container=1;collapsible=1;childLayout=tableLayout;fixedRows=1;rowLines=0;fontStyle=1;align=center;resizeLast=1;" vertex="1" parent="1">
          <mxGeometry x="180" y="220" width="180" height="210" as="geometry" />
        </mxCell>
        <mxCell id="a2fp3hkH8mO6RsdTGguM-2" value="" style="shape=partialRectangle;collapsible=0;dropTarget=0;pointerEvents=0;fillColor=none;top=0;left=0;bottom=1;right=0;points=[[0,0.5],[1,0.5]];portConstraint=eastwest;" vertex="1" parent="a2fp3hkH8mO6RsdTGguM-1">
          <mxGeometry y="30" width="180" height="30" as="geometry" />
        </mxCell>
        <mxCell id="a2fp3hkH8mO6RsdTGguM-3" value="PK" style="shape=partialRectangle;connectable=0;fillColor=none;top=0;left=0;bottom=0;right=0;fontStyle=1;overflow=hidden;" vertex="1" parent="a2fp3hkH8mO6RsdTGguM-2">
          <mxGeometry width="30" height="30" as="geometry" />
        </mxCell>
        <mxCell id="a2fp3hkH8mO6RsdTGguM-4" value="id" style="shape=partialRectangle;connectable=0;fillColor=none;top=0;left=0;bottom=0;right=0;align=left;spacingLeft=6;fontStyle=5;overflow=hidden;" vertex="1" parent="a2fp3hkH8mO6RsdTGguM-2">
          <mxGeometry x="30" width="150" height="30" as="geometry" />
        </mxCell>
        <mxCell id="a2fp3hkH8mO6RsdTGguM-8" value="" style="shape=partialRectangle;collapsible=0;dropTarget=0;pointerEvents=0;fillColor=none;top=0;left=0;bottom=0;right=0;points=[[0,0.5],[1,0.5]];portConstraint=eastwest;" vertex="1" parent="a2fp3hkH8mO6RsdTGguM-1">
          <mxGeometry y="60" width="180" height="30" as="geometry" />
        </mxCell>
        <mxCell id="a2fp3hkH8mO6RsdTGguM-9" value="" style="shape=partialRectangle;connectable=0;fillColor=none;top=0;left=0;bottom=0;right=0;editable=1;overflow=hidden;" vertex="1" parent="a2fp3hkH8mO6RsdTGguM-8">
          <mxGeometry width="30" height="30" as="geometry" />
        </mxCell>
        <mxCell id="a2fp3hkH8mO6RsdTGguM-10" value="username" style="shape=partialRectangle;connectable=0;fillColor=none;top=0;left=0;bottom=0;right=0;align=left;spacingLeft=6;overflow=hidden;" vertex="1" parent="a2fp3hkH8mO6RsdTGguM-8">
          <mxGeometry x="30" width="150" height="30" as="geometry" />
        </mxCell>
        <mxCell id="a2fp3hkH8mO6RsdTGguM-11" value="" style="shape=partialRectangle;collapsible=0;dropTarget=0;pointerEvents=0;fillColor=none;top=0;left=0;bottom=0;right=0;points=[[0,0.5],[1,0.5]];portConstraint=eastwest;" vertex="1" parent="a2fp3hkH8mO6RsdTGguM-1">
          <mxGeometry y="90" width="180" height="30" as="geometry" />
        </mxCell>
        <mxCell id="a2fp3hkH8mO6RsdTGguM-12" value="" style="shape=partialRectangle;connectable=0;fillColor=none;top=0;left=0;bottom=0;right=0;editable=1;overflow=hidden;" vertex="1" parent="a2fp3hkH8mO6RsdTGguM-11">
          <mxGeometry width="30" height="30" as="geometry" />
        </mxCell>
        <mxCell id="a2fp3hkH8mO6RsdTGguM-13" value="profile" style="shape=partialRectangle;connectable=0;fillColor=none;top=0;left=0;bottom=0;right=0;align=left;spacingLeft=6;overflow=hidden;" vertex="1" parent="a2fp3hkH8mO6RsdTGguM-11">
          <mxGeometry x="30" width="150" height="30" as="geometry" />
        </mxCell>
        <mxCell id="a2fp3hkH8mO6RsdTGguM-5" value="" style="shape=partialRectangle;collapsible=0;dropTarget=0;pointerEvents=0;fillColor=none;top=0;left=0;bottom=0;right=0;points=[[0,0.5],[1,0.5]];portConstraint=eastwest;" vertex="1" parent="a2fp3hkH8mO6RsdTGguM-1">
          <mxGeometry y="120" width="180" height="30" as="geometry" />
        </mxCell>
        <mxCell id="a2fp3hkH8mO6RsdTGguM-6" value="" style="shape=partialRectangle;connectable=0;fillColor=none;top=0;left=0;bottom=0;right=0;editable=1;overflow=hidden;" vertex="1" parent="a2fp3hkH8mO6RsdTGguM-5">
          <mxGeometry width="30" height="30" as="geometry" />
        </mxCell>
        <mxCell id="a2fp3hkH8mO6RsdTGguM-7" value="created_at" style="shape=partialRectangle;connectable=0;fillColor=none;top=0;left=0;bottom=0;right=0;align=left;spacingLeft=6;overflow=hidden;" vertex="1" parent="a2fp3hkH8mO6RsdTGguM-5">
          <mxGeometry x="30" width="150" height="30" as="geometry" />
        </mxCell>
        <mxCell id="a2fp3hkH8mO6RsdTGguM-92" value="" style="shape=partialRectangle;collapsible=0;dropTarget=0;pointerEvents=0;fillColor=none;top=0;left=0;bottom=0;right=0;points=[[0,0.5],[1,0.5]];portConstraint=eastwest;" vertex="1" parent="a2fp3hkH8mO6RsdTGguM-1">
          <mxGeometry y="150" width="180" height="30" as="geometry" />
        </mxCell>
        <mxCell id="a2fp3hkH8mO6RsdTGguM-93" value="" style="shape=partialRectangle;connectable=0;fillColor=none;top=0;left=0;bottom=0;right=0;editable=1;overflow=hidden;" vertex="1" parent="a2fp3hkH8mO6RsdTGguM-92">
          <mxGeometry width="30" height="30" as="geometry" />
        </mxCell>
        <mxCell id="a2fp3hkH8mO6RsdTGguM-94" value="updated_at" style="shape=partialRectangle;connectable=0;fillColor=none;top=0;left=0;bottom=0;right=0;align=left;spacingLeft=6;overflow=hidden;" vertex="1" parent="a2fp3hkH8mO6RsdTGguM-92">
          <mxGeometry x="30" width="150" height="30" as="geometry" />
        </mxCell>
        <mxCell id="a2fp3hkH8mO6RsdTGguM-14" value="keyword" style="shape=table;startSize=30;container=1;collapsible=1;childLayout=tableLayout;fixedRows=1;rowLines=0;fontStyle=1;align=center;resizeLast=1;" vertex="1" parent="1">
          <mxGeometry x="430" y="220" width="180" height="210" as="geometry" />
        </mxCell>
        <mxCell id="a2fp3hkH8mO6RsdTGguM-15" value="" style="shape=partialRectangle;collapsible=0;dropTarget=0;pointerEvents=0;fillColor=none;top=0;left=0;bottom=1;right=0;points=[[0,0.5],[1,0.5]];portConstraint=eastwest;" vertex="1" parent="a2fp3hkH8mO6RsdTGguM-14">
          <mxGeometry y="30" width="180" height="30" as="geometry" />
        </mxCell>
        <mxCell id="a2fp3hkH8mO6RsdTGguM-16" value="PK" style="shape=partialRectangle;connectable=0;fillColor=none;top=0;left=0;bottom=0;right=0;fontStyle=1;overflow=hidden;" vertex="1" parent="a2fp3hkH8mO6RsdTGguM-15">
          <mxGeometry width="30" height="30" as="geometry" />
        </mxCell>
        <mxCell id="a2fp3hkH8mO6RsdTGguM-17" value="id" style="shape=partialRectangle;connectable=0;fillColor=none;top=0;left=0;bottom=0;right=0;align=left;spacingLeft=6;fontStyle=5;overflow=hidden;" vertex="1" parent="a2fp3hkH8mO6RsdTGguM-15">
          <mxGeometry x="30" width="150" height="30" as="geometry" />
        </mxCell>
        <mxCell id="a2fp3hkH8mO6RsdTGguM-21" value="" style="shape=partialRectangle;collapsible=0;dropTarget=0;pointerEvents=0;fillColor=none;top=0;left=0;bottom=0;right=0;points=[[0,0.5],[1,0.5]];portConstraint=eastwest;" vertex="1" parent="a2fp3hkH8mO6RsdTGguM-14">
          <mxGeometry y="60" width="180" height="30" as="geometry" />
        </mxCell>
        <mxCell id="a2fp3hkH8mO6RsdTGguM-22" value="FK" style="shape=partialRectangle;connectable=0;fillColor=none;top=0;left=0;bottom=1;right=0;editable=1;overflow=hidden;" vertex="1" parent="a2fp3hkH8mO6RsdTGguM-21">
          <mxGeometry width="30" height="30" as="geometry" />
        </mxCell>
        <mxCell id="a2fp3hkH8mO6RsdTGguM-23" value="user_id" style="shape=partialRectangle;connectable=0;fillColor=none;top=0;left=0;bottom=1;right=0;align=left;spacingLeft=6;overflow=hidden;" vertex="1" parent="a2fp3hkH8mO6RsdTGguM-21">
          <mxGeometry x="30" width="150" height="30" as="geometry" />
        </mxCell>
        <mxCell id="a2fp3hkH8mO6RsdTGguM-24" value="" style="shape=partialRectangle;collapsible=0;dropTarget=0;pointerEvents=0;fillColor=none;top=0;left=0;bottom=0;right=0;points=[[0,0.5],[1,0.5]];portConstraint=eastwest;" vertex="1" parent="a2fp3hkH8mO6RsdTGguM-14">
          <mxGeometry y="90" width="180" height="30" as="geometry" />
        </mxCell>
        <mxCell id="a2fp3hkH8mO6RsdTGguM-25" value="" style="shape=partialRectangle;connectable=0;fillColor=none;top=0;left=0;bottom=0;right=0;editable=1;overflow=hidden;" vertex="1" parent="a2fp3hkH8mO6RsdTGguM-24">
          <mxGeometry width="30" height="30" as="geometry" />
        </mxCell>
        <mxCell id="a2fp3hkH8mO6RsdTGguM-26" value="word" style="shape=partialRectangle;connectable=0;fillColor=none;top=0;left=0;bottom=0;right=0;align=left;spacingLeft=6;overflow=hidden;" vertex="1" parent="a2fp3hkH8mO6RsdTGguM-24">
          <mxGeometry x="30" width="150" height="30" as="geometry" />
        </mxCell>
        <mxCell id="a2fp3hkH8mO6RsdTGguM-34" value="" style="shape=partialRectangle;collapsible=0;dropTarget=0;pointerEvents=0;fillColor=none;top=0;left=0;bottom=0;right=0;points=[[0,0.5],[1,0.5]];portConstraint=eastwest;" vertex="1" parent="a2fp3hkH8mO6RsdTGguM-14">
          <mxGeometry y="120" width="180" height="30" as="geometry" />
        </mxCell>
        <mxCell id="a2fp3hkH8mO6RsdTGguM-35" value="" style="shape=partialRectangle;connectable=0;fillColor=none;top=0;left=0;bottom=0;right=0;editable=1;overflow=hidden;" vertex="1" parent="a2fp3hkH8mO6RsdTGguM-34">
          <mxGeometry width="30" height="30" as="geometry" />
        </mxCell>
        <mxCell id="a2fp3hkH8mO6RsdTGguM-36" value="last_study_date" style="shape=partialRectangle;connectable=0;fillColor=none;top=0;left=0;bottom=0;right=0;align=left;spacingLeft=6;overflow=hidden;" vertex="1" parent="a2fp3hkH8mO6RsdTGguM-34">
          <mxGeometry x="30" width="150" height="30" as="geometry" />
        </mxCell>
        <mxCell id="a2fp3hkH8mO6RsdTGguM-18" value="" style="shape=partialRectangle;collapsible=0;dropTarget=0;pointerEvents=0;fillColor=none;top=0;left=0;bottom=0;right=0;points=[[0,0.5],[1,0.5]];portConstraint=eastwest;" vertex="1" parent="a2fp3hkH8mO6RsdTGguM-14">
          <mxGeometry y="150" width="180" height="30" as="geometry" />
        </mxCell>
        <mxCell id="a2fp3hkH8mO6RsdTGguM-19" value="" style="shape=partialRectangle;connectable=0;fillColor=none;top=0;left=0;bottom=0;right=0;editable=1;overflow=hidden;" vertex="1" parent="a2fp3hkH8mO6RsdTGguM-18">
          <mxGeometry width="30" height="30" as="geometry" />
        </mxCell>
        <mxCell id="a2fp3hkH8mO6RsdTGguM-20" value="created_at" style="shape=partialRectangle;connectable=0;fillColor=none;top=0;left=0;bottom=0;right=0;align=left;spacingLeft=6;overflow=hidden;" vertex="1" parent="a2fp3hkH8mO6RsdTGguM-18">
          <mxGeometry x="30" width="150" height="30" as="geometry" />
        </mxCell>
        <mxCell id="a2fp3hkH8mO6RsdTGguM-95" value="" style="shape=partialRectangle;collapsible=0;dropTarget=0;pointerEvents=0;fillColor=none;top=0;left=0;bottom=0;right=0;points=[[0,0.5],[1,0.5]];portConstraint=eastwest;" vertex="1" parent="a2fp3hkH8mO6RsdTGguM-14">
          <mxGeometry y="180" width="180" height="30" as="geometry" />
        </mxCell>
        <mxCell id="a2fp3hkH8mO6RsdTGguM-96" value="" style="shape=partialRectangle;connectable=0;fillColor=none;top=0;left=0;bottom=0;right=0;editable=1;overflow=hidden;" vertex="1" parent="a2fp3hkH8mO6RsdTGguM-95">
          <mxGeometry width="30" height="30" as="geometry" />
        </mxCell>
        <mxCell id="a2fp3hkH8mO6RsdTGguM-97" value="updated_at" style="shape=partialRectangle;connectable=0;fillColor=none;top=0;left=0;bottom=0;right=0;align=left;spacingLeft=6;overflow=hidden;" vertex="1" parent="a2fp3hkH8mO6RsdTGguM-95">
          <mxGeometry x="30" width="150" height="30" as="geometry" />
        </mxCell>
        <mxCell id="a2fp3hkH8mO6RsdTGguM-40" value="word_memo" style="shape=table;startSize=30;container=1;collapsible=1;childLayout=tableLayout;fixedRows=1;rowLines=0;fontStyle=1;align=center;resizeLast=1;" vertex="1" parent="1">
          <mxGeometry x="680" y="220" width="180" height="210" as="geometry" />
        </mxCell>
        <mxCell id="a2fp3hkH8mO6RsdTGguM-41" value="" style="shape=partialRectangle;collapsible=0;dropTarget=0;pointerEvents=0;fillColor=none;top=0;left=0;bottom=1;right=0;points=[[0,0.5],[1,0.5]];portConstraint=eastwest;" vertex="1" parent="a2fp3hkH8mO6RsdTGguM-40">
          <mxGeometry y="30" width="180" height="30" as="geometry" />
        </mxCell>
        <mxCell id="a2fp3hkH8mO6RsdTGguM-42" value="PK" style="shape=partialRectangle;connectable=0;fillColor=none;top=0;left=0;bottom=0;right=0;fontStyle=1;overflow=hidden;" vertex="1" parent="a2fp3hkH8mO6RsdTGguM-41">
          <mxGeometry width="30" height="30" as="geometry" />
        </mxCell>
        <mxCell id="a2fp3hkH8mO6RsdTGguM-43" value="id" style="shape=partialRectangle;connectable=0;fillColor=none;top=0;left=0;bottom=0;right=0;align=left;spacingLeft=6;fontStyle=5;overflow=hidden;" vertex="1" parent="a2fp3hkH8mO6RsdTGguM-41">
          <mxGeometry x="30" width="150" height="30" as="geometry" />
        </mxCell>
        <mxCell id="a2fp3hkH8mO6RsdTGguM-44" value="" style="shape=partialRectangle;collapsible=0;dropTarget=0;pointerEvents=0;fillColor=none;top=0;left=0;bottom=0;right=0;points=[[0,0.5],[1,0.5]];portConstraint=eastwest;" vertex="1" parent="a2fp3hkH8mO6RsdTGguM-40">
          <mxGeometry y="60" width="180" height="30" as="geometry" />
        </mxCell>
        <mxCell id="a2fp3hkH8mO6RsdTGguM-45" value="FK" style="shape=partialRectangle;connectable=0;fillColor=none;top=0;left=0;bottom=1;right=0;editable=1;overflow=hidden;" vertex="1" parent="a2fp3hkH8mO6RsdTGguM-44">
          <mxGeometry width="30" height="30" as="geometry" />
        </mxCell>
        <mxCell id="a2fp3hkH8mO6RsdTGguM-46" value="keyword_id" style="shape=partialRectangle;connectable=0;fillColor=none;top=0;left=0;bottom=1;right=0;align=left;spacingLeft=6;overflow=hidden;" vertex="1" parent="a2fp3hkH8mO6RsdTGguM-44">
          <mxGeometry x="30" width="150" height="30" as="geometry" />
        </mxCell>
        <mxCell id="a2fp3hkH8mO6RsdTGguM-47" value="" style="shape=partialRectangle;collapsible=0;dropTarget=0;pointerEvents=0;fillColor=none;top=0;left=0;bottom=0;right=0;points=[[0,0.5],[1,0.5]];portConstraint=eastwest;" vertex="1" parent="a2fp3hkH8mO6RsdTGguM-40">
          <mxGeometry y="90" width="180" height="30" as="geometry" />
        </mxCell>
        <mxCell id="a2fp3hkH8mO6RsdTGguM-48" value="" style="shape=partialRectangle;connectable=0;fillColor=none;top=0;left=0;bottom=0;right=0;editable=1;overflow=hidden;" vertex="1" parent="a2fp3hkH8mO6RsdTGguM-47">
          <mxGeometry width="30" height="30" as="geometry" />
        </mxCell>
        <mxCell id="a2fp3hkH8mO6RsdTGguM-49" value="memo_text" style="shape=partialRectangle;connectable=0;fillColor=none;top=0;left=0;bottom=0;right=0;align=left;spacingLeft=6;overflow=hidden;" vertex="1" parent="a2fp3hkH8mO6RsdTGguM-47">
          <mxGeometry x="30" width="150" height="30" as="geometry" />
        </mxCell>
        <mxCell id="a2fp3hkH8mO6RsdTGguM-50" value="" style="shape=partialRectangle;collapsible=0;dropTarget=0;pointerEvents=0;fillColor=none;top=0;left=0;bottom=0;right=0;points=[[0,0.5],[1,0.5]];portConstraint=eastwest;" vertex="1" parent="a2fp3hkH8mO6RsdTGguM-40">
          <mxGeometry y="120" width="180" height="30" as="geometry" />
        </mxCell>
        <mxCell id="a2fp3hkH8mO6RsdTGguM-51" value="" style="shape=partialRectangle;connectable=0;fillColor=none;top=0;left=0;bottom=0;right=0;editable=1;overflow=hidden;" vertex="1" parent="a2fp3hkH8mO6RsdTGguM-50">
          <mxGeometry width="30" height="30" as="geometry" />
        </mxCell>
        <mxCell id="a2fp3hkH8mO6RsdTGguM-52" value="created_at" style="shape=partialRectangle;connectable=0;fillColor=none;top=0;left=0;bottom=0;right=0;align=left;spacingLeft=6;overflow=hidden;" vertex="1" parent="a2fp3hkH8mO6RsdTGguM-50">
          <mxGeometry x="30" width="150" height="30" as="geometry" />
        </mxCell>
        <mxCell id="a2fp3hkH8mO6RsdTGguM-53" value="" style="shape=partialRectangle;collapsible=0;dropTarget=0;pointerEvents=0;fillColor=none;top=0;left=0;bottom=0;right=0;points=[[0,0.5],[1,0.5]];portConstraint=eastwest;" vertex="1" parent="a2fp3hkH8mO6RsdTGguM-40">
          <mxGeometry y="150" width="180" height="30" as="geometry" />
        </mxCell>
        <mxCell id="a2fp3hkH8mO6RsdTGguM-54" value="" style="shape=partialRectangle;connectable=0;fillColor=none;top=0;left=0;bottom=0;right=0;editable=1;overflow=hidden;" vertex="1" parent="a2fp3hkH8mO6RsdTGguM-53">
          <mxGeometry width="30" height="30" as="geometry" />
        </mxCell>
        <mxCell id="a2fp3hkH8mO6RsdTGguM-55" value="updated_at" style="shape=partialRectangle;connectable=0;fillColor=none;top=0;left=0;bottom=0;right=0;align=left;spacingLeft=6;overflow=hidden;" vertex="1" parent="a2fp3hkH8mO6RsdTGguM-53">
          <mxGeometry x="30" width="150" height="30" as="geometry" />
        </mxCell>
        <mxCell id="a2fp3hkH8mO6RsdTGguM-98" value="" style="shape=partialRectangle;collapsible=0;dropTarget=0;pointerEvents=0;fillColor=none;top=0;left=0;bottom=0;right=0;points=[[0,0.5],[1,0.5]];portConstraint=eastwest;" vertex="1" parent="a2fp3hkH8mO6RsdTGguM-40">
          <mxGeometry y="180" width="180" height="30" as="geometry" />
        </mxCell>
        <mxCell id="a2fp3hkH8mO6RsdTGguM-99" value="" style="shape=partialRectangle;connectable=0;fillColor=none;top=0;left=0;bottom=0;right=0;editable=1;overflow=hidden;" vertex="1" parent="a2fp3hkH8mO6RsdTGguM-98">
          <mxGeometry width="30" height="30" as="geometry" />
        </mxCell>
        <mxCell id="a2fp3hkH8mO6RsdTGguM-100" value="" style="shape=partialRectangle;connectable=0;fillColor=none;top=0;left=0;bottom=0;right=0;align=left;spacingLeft=6;overflow=hidden;" vertex="1" parent="a2fp3hkH8mO6RsdTGguM-98">
          <mxGeometry x="30" width="150" height="30" as="geometry" />
        </mxCell>
        <mxCell id="a2fp3hkH8mO6RsdTGguM-58" value="stamp" style="shape=table;startSize=30;container=1;collapsible=1;childLayout=tableLayout;fixedRows=1;rowLines=0;fontStyle=1;align=center;resizeLast=1;" vertex="1" parent="1">
          <mxGeometry x="430" y="490" width="180" height="180" as="geometry" />
        </mxCell>
        <mxCell id="a2fp3hkH8mO6RsdTGguM-59" value="" style="shape=partialRectangle;collapsible=0;dropTarget=0;pointerEvents=0;fillColor=none;top=0;left=0;bottom=1;right=0;points=[[0,0.5],[1,0.5]];portConstraint=eastwest;" vertex="1" parent="a2fp3hkH8mO6RsdTGguM-58">
          <mxGeometry y="30" width="180" height="30" as="geometry" />
        </mxCell>
        <mxCell id="a2fp3hkH8mO6RsdTGguM-60" value="PK" style="shape=partialRectangle;connectable=0;fillColor=none;top=0;left=0;bottom=0;right=0;fontStyle=1;overflow=hidden;" vertex="1" parent="a2fp3hkH8mO6RsdTGguM-59">
          <mxGeometry width="30" height="30" as="geometry" />
        </mxCell>
        <mxCell id="a2fp3hkH8mO6RsdTGguM-61" value="id" style="shape=partialRectangle;connectable=0;fillColor=none;top=0;left=0;bottom=0;right=0;align=left;spacingLeft=6;fontStyle=5;overflow=hidden;" vertex="1" parent="a2fp3hkH8mO6RsdTGguM-59">
          <mxGeometry x="30" width="150" height="30" as="geometry" />
        </mxCell>
        <mxCell id="a2fp3hkH8mO6RsdTGguM-62" value="" style="shape=partialRectangle;collapsible=0;dropTarget=0;pointerEvents=0;fillColor=none;top=0;left=0;bottom=0;right=0;points=[[0,0.5],[1,0.5]];portConstraint=eastwest;" vertex="1" parent="a2fp3hkH8mO6RsdTGguM-58">
          <mxGeometry y="60" width="180" height="30" as="geometry" />
        </mxCell>
        <mxCell id="a2fp3hkH8mO6RsdTGguM-63" value="FK" style="shape=partialRectangle;connectable=0;fillColor=none;top=0;left=0;bottom=1;right=0;editable=1;overflow=hidden;" vertex="1" parent="a2fp3hkH8mO6RsdTGguM-62">
          <mxGeometry width="30" height="30" as="geometry" />
        </mxCell>
        <mxCell id="a2fp3hkH8mO6RsdTGguM-64" value="user_id" style="shape=partialRectangle;connectable=0;fillColor=none;top=0;left=0;bottom=1;right=0;align=left;spacingLeft=6;overflow=hidden;" vertex="1" parent="a2fp3hkH8mO6RsdTGguM-62">
          <mxGeometry x="30" width="150" height="30" as="geometry" />
        </mxCell>
        <mxCell id="a2fp3hkH8mO6RsdTGguM-65" value="" style="shape=partialRectangle;collapsible=0;dropTarget=0;pointerEvents=0;fillColor=none;top=0;left=0;bottom=0;right=0;points=[[0,0.5],[1,0.5]];portConstraint=eastwest;" vertex="1" parent="a2fp3hkH8mO6RsdTGguM-58">
          <mxGeometry y="90" width="180" height="30" as="geometry" />
        </mxCell>
        <mxCell id="a2fp3hkH8mO6RsdTGguM-66" value="FK" style="shape=partialRectangle;connectable=0;fillColor=none;top=0;left=0;bottom=1;right=0;editable=1;overflow=hidden;" vertex="1" parent="a2fp3hkH8mO6RsdTGguM-65">
          <mxGeometry width="30" height="30" as="geometry" />
        </mxCell>
        <mxCell id="a2fp3hkH8mO6RsdTGguM-67" value="keyword_id" style="shape=partialRectangle;connectable=0;fillColor=none;top=0;left=0;bottom=1;right=0;align=left;spacingLeft=6;overflow=hidden;" vertex="1" parent="a2fp3hkH8mO6RsdTGguM-65">
          <mxGeometry x="30" width="150" height="30" as="geometry" />
        </mxCell>
        <mxCell id="a2fp3hkH8mO6RsdTGguM-71" value="" style="shape=partialRectangle;collapsible=0;dropTarget=0;pointerEvents=0;fillColor=none;top=0;left=0;bottom=0;right=0;points=[[0,0.5],[1,0.5]];portConstraint=eastwest;" vertex="1" parent="a2fp3hkH8mO6RsdTGguM-58">
          <mxGeometry y="120" width="180" height="30" as="geometry" />
        </mxCell>
        <mxCell id="a2fp3hkH8mO6RsdTGguM-72" value="" style="shape=partialRectangle;connectable=0;fillColor=none;top=0;left=0;bottom=0;right=0;editable=1;overflow=hidden;" vertex="1" parent="a2fp3hkH8mO6RsdTGguM-71">
          <mxGeometry width="30" height="30" as="geometry" />
        </mxCell>
        <mxCell id="a2fp3hkH8mO6RsdTGguM-73" value="created_at" style="shape=partialRectangle;connectable=0;fillColor=none;top=0;left=0;bottom=0;right=0;align=left;spacingLeft=6;overflow=hidden;" vertex="1" parent="a2fp3hkH8mO6RsdTGguM-71">
          <mxGeometry x="30" width="150" height="30" as="geometry" />
        </mxCell>
        <mxCell id="a2fp3hkH8mO6RsdTGguM-101" value="" style="shape=partialRectangle;collapsible=0;dropTarget=0;pointerEvents=0;fillColor=none;top=0;left=0;bottom=0;right=0;points=[[0,0.5],[1,0.5]];portConstraint=eastwest;" vertex="1" parent="a2fp3hkH8mO6RsdTGguM-58">
          <mxGeometry y="150" width="180" height="30" as="geometry" />
        </mxCell>
        <mxCell id="a2fp3hkH8mO6RsdTGguM-102" value="" style="shape=partialRectangle;connectable=0;fillColor=none;top=0;left=0;bottom=0;right=0;editable=1;overflow=hidden;" vertex="1" parent="a2fp3hkH8mO6RsdTGguM-101">
          <mxGeometry width="30" height="30" as="geometry" />
        </mxCell>
        <mxCell id="a2fp3hkH8mO6RsdTGguM-103" value="created_at" style="shape=partialRectangle;connectable=0;fillColor=none;top=0;left=0;bottom=0;right=0;align=left;spacingLeft=6;overflow=hidden;" vertex="1" parent="a2fp3hkH8mO6RsdTGguM-101">
          <mxGeometry x="30" width="150" height="30" as="geometry" />
        </mxCell>
      </root>
    </mxGraphModel>
  </diagram>
</mxfile>
